# xmcd
#
# Track frame offsets: 
#        150
#        16830
#        36969
#        52163
#        70025
#        88671
#        111206
#        130135
#        156391
#        186080
#        202468
#        225774
#
# Disc length: 3398 seconds
#
# Revision: 1
# Processed by: cddbd v1.5.2PL0 Copyright (c) Steve Scherf et al.
# Submitted via: ExactAudioCopyFreeDBPlugin 1.0
#
DISCID=a30d440c
DTITLE=Blue Mitchell - Blue Soul
DYEAR=1959
DGENRE=Jazz
TTITLE0=Minor Vamp
TTITLE1=The Head
TTITLE2=The Way You Look Tonight
TTITLE3=Park Avenue Petite
TTITLE4=Top Shelf
TTITLE5=Waverley Street
TTITLE6=Blue Soul
TTITLE7=Polka Dots And Moonbeams
TTITLE8=Nica's Dream
TTITLE9=Minor Vamp (take 1)
TTITLE10=Park Avenue Petite (take 1)
TTITLE11=Blue Soul (take 2)
EXTD=YEAR: 1959
EXTT0=
EXTT1=
EXTT2=
EXTT3=
EXTT4=
EXTT5=
EXTT6=
EXTT7=
EXTT8=
EXTT9=
EXTT10=
EXTT11=
PLAYORDER=
